<svg xmlns="http://www.w3.org/2000/svg" width="860" height="210" viewBox="0 0 860 210">
<defs>
<marker id="ah" viewBox="0 0 10 10" refX="9" refY="5" markerWidth="7" markerHeight="7" orient="auto"><path d="M0,0 L10,5 L0,10 z" fill="#4B5563"/></marker>
<marker id="ahs" viewBox="0 0 10 10" refX="9" refY="5" markerWidth="7" markerHeight="7" orient="auto"><path d="M0,0 L10,5 L0,10 z" fill="#4B5563"/></marker>
</defs>
<rect width="100%" height="100%" fill="#FFFFFF"/>
<rect x="20" y="30" width="124" height="64" rx="8" fill="#FFFFFF" stroke="#9CA3AF" stroke-width="1.6"/><text x="82" y="56.7" font-family="Liberation Sans" font-size="14" font-weight="700" text-anchor="middle" fill="#1F2937">Cluster</text><text x="82" y="75.7" font-family="Liberation Sans" font-size="11" font-weight="400" text-anchor="middle" fill="#4B5563">quorate, all nodes up</text><line x1="144" y1="62" x2="158" y2="62" stroke="#4B5563" stroke-width="1.8" marker-end="url(#ah)"/><rect x="160" y="30" width="124" height="64" rx="8" fill="#FFFFFF" stroke="#9CA3AF" stroke-width="1.6"/><text x="222" y="56.7" font-family="Liberation Sans" font-size="14" font-weight="700" text-anchor="middle" fill="#1F2937">Ceph</text><text x="222" y="75.7" font-family="Liberation Sans" font-size="11" font-weight="400" text-anchor="middle" fill="#4B5563">HEALTH_OK</text><line x1="284" y1="62" x2="298" y2="62" stroke="#4B5563" stroke-width="1.8" marker-end="url(#ah)"/><rect x="300" y="30" width="124" height="64" rx="8" fill="#FFFFFF" stroke="#9CA3AF" stroke-width="1.6"/><text x="362" y="56.7" font-family="Liberation Sans" font-size="14" font-weight="700" text-anchor="middle" fill="#1F2937">Storage</text><text x="362" y="75.7" font-family="Liberation Sans" font-size="11" font-weight="400" text-anchor="middle" fill="#4B5563">below 80%</text><line x1="424" y1="62" x2="438" y2="62" stroke="#4B5563" stroke-width="1.8" marker-end="url(#ah)"/><rect x="440" y="30" width="124" height="64" rx="8" fill="#FFFFFF" stroke="#9CA3AF" stroke-width="1.6"/><text x="502" y="56.7" font-family="Liberation Sans" font-size="14" font-weight="700" text-anchor="middle" fill="#1F2937">Backups</text><text x="502" y="75.7" font-family="Liberation Sans" font-size="11" font-weight="400" text-anchor="middle" fill="#4B5563">last night OK</text><line x1="564" y1="62" x2="578" y2="62" stroke="#4B5563" stroke-width="1.8" marker-end="url(#ah)"/><rect x="580" y="30" width="124" height="64" rx="8" fill="#FFFFFF" stroke="#9CA3AF" stroke-width="1.6"/><text x="642" y="56.7" font-family="Liberation Sans" font-size="14" font-weight="700" text-anchor="middle" fill="#1F2937">HA</text><text x="642" y="75.7" font-family="Liberation Sans" font-size="11" font-weight="400" text-anchor="middle" fill="#4B5563">all started</text><line x1="704" y1="62" x2="718" y2="62" stroke="#4B5563" stroke-width="1.8" marker-end="url(#ah)"/><rect x="720" y="30" width="124" height="64" rx="8" fill="#FFFFFF" stroke="#9CA3AF" stroke-width="1.6"/><text x="782" y="56.7" font-family="Liberation Sans" font-size="14" font-weight="700" text-anchor="middle" fill="#1F2937">Tasks</text><text x="782" y="75.7" font-family="Liberation Sans" font-size="11" font-weight="400" text-anchor="middle" fill="#4B5563">no new errors</text><line x1="82" y1="94" x2="82" y2="112" stroke="#4B5563" stroke-width="1.8"/><line x1="222" y1="94" x2="222" y2="112" stroke="#4B5563" stroke-width="1.8"/><line x1="362" y1="94" x2="362" y2="112" stroke="#4B5563" stroke-width="1.8"/><line x1="502" y1="94" x2="502" y2="112" stroke="#4B5563" stroke-width="1.8"/><line x1="642" y1="94" x2="642" y2="112" stroke="#4B5563" stroke-width="1.8"/><line x1="782" y1="94" x2="782" y2="112" stroke="#4B5563" stroke-width="1.8"/><line x1="82" y1="112" x2="782" y2="112" stroke="#4B5563" stroke-width="1.8"/><line x1="230" y1="112" x2="230" y2="140" stroke="#4B5563" stroke-width="1.8" marker-end="url(#ah)"/><line x1="630" y1="112" x2="630" y2="140" stroke="#4B5563" stroke-width="1.8" marker-end="url(#ah)"/><rect x="90" y="143" width="280" height="52" rx="8" fill="#DCFCE7" stroke="#16A34A" stroke-width="1.6"/><text x="230" y="163.7" font-family="Liberation Sans" font-size="14" font-weight="700" text-anchor="middle" fill="#1F2937">All green</text><text x="230" y="182.7" font-family="Liberation Sans" font-size="12" font-weight="400" text-anchor="middle" fill="#4B5563">done: about 5 minutes</text><rect x="490" y="143" width="280" height="52" rx="8" fill="#FEE2E2" stroke="#DC2626" stroke-width="1.6"/><text x="630" y="163.7" font-family="Liberation Sans" font-size="14" font-weight="700" text-anchor="middle" fill="#1F2937">Anything red or amber</text><text x="630" y="182.7" font-family="Liberation Sans" font-size="12" font-weight="400" text-anchor="middle" fill="#4B5563">open the matching runbook</text>
</svg>